<?xml version="1.0" encoding="UTF-8"?>
<svg version="1.1" xmlns="http://www.w3.org/2000/svg" width="250" height="250">
<path d="M0 0 C8.91 0 17.82 0 27 0 C27.02187378 3.76192749 27.02187378 3.76192749 27.04418945 7.59985352 C27.09458882 15.89803724 27.16119341 24.19603437 27.23571491 32.49403477 C27.2803896 37.52375744 27.31965219 42.55339966 27.34643555 47.58325195 C27.37249736 52.43985902 27.41292031 57.29615598 27.46318626 62.15257072 C27.47983549 64.00281853 27.49136186 65.85311994 27.49761391 67.70343208 C27.50727617 70.30074483 27.53536047 72.89726773 27.56762695 75.49438477 C27.56619186 76.25467987 27.56475677 77.01497498 27.5632782 77.79830933 C27.65230394 82.88511174 28.64932112 86.46798373 31 91 C34.1457616 93.49491437 37.09159791 93.43040245 41 93 C44.61966371 91.40305498 47.97554676 89.39176589 51.375 87.375 C52.38522217 86.78960449 53.39544434 86.20420898 54.4362793 85.60107422 C57.63136022 83.74605697 60.81583111 81.87367263 64 80 C65.97716342 78.84775435 67.95501261 77.69668451 69.93359375 76.546875 C77.14347405 72.35234043 84.34663684 68.14627714 91.5390625 63.921875 C94.54396935 62.15746548 97.55270223 60.39973532 100.56381226 58.64593506 C102.28263308 57.64243718 103.99743603 56.6320675 105.7121582 55.62158203 C106.75202881 55.01685059 107.79189941 54.41211914 108.86328125 53.7890625 C109.78407471 53.24975098 110.70486816 52.71043945 111.65356445 52.15478516 C114 51 114 51 117 51 C119.01048951 54.43146714 121.00655245 57.87110912 123 61.3125 C123.57234375 62.28896484 124.1446875 63.26542969 124.734375 64.27148438 C125.54648437 65.67817383 125.54648437 65.67817383 126.375 67.11328125 C126.87773437 67.97735596 127.38046875 68.84143066 127.8984375 69.73168945 C129 72 129 72 129 75 C127.9790625 75.55945313 126.958125 76.11890625 125.90625 76.6953125 C116.01497288 82.14038176 106.22494423 87.74209769 96.48632812 93.45556641 C90.99749659 96.67420747 85.49645676 99.86828873 79.96875 103.01953125 C78.79358279 103.69109736 77.61845229 104.36272773 76.44335938 105.03442383 C74.20753133 106.31070372 71.96937579 107.58291798 69.72851562 108.8503418 C58.76136115 114.33946643 58.76136115 114.33946643 51.8125 123.5625 C52.02622839 127.48085382 52.69996222 128.86859408 55 132 C57.69101542 134.0585068 57.69101542 134.0585068 60.86328125 135.83984375 C61.43710037 136.17966782 62.01091949 136.51949188 62.60212708 136.86961365 C64.39423951 137.92598446 66.1957894 138.96445373 68 140 C69.07813965 140.62664551 70.1562793 141.25329102 71.26708984 141.89892578 C74.56504705 143.80273059 77.87446257 145.68507255 81.1875 147.5625 C83.63344249 148.95332105 86.07842646 150.34582357 88.5234375 151.73828125 C89.13961441 152.08893646 89.75579132 152.43959167 90.39064026 152.8008728 C98.13340471 157.20966008 105.84659015 161.669525 113.5612793 166.12719727 C118.70078801 169.09677341 123.842757 172.0613171 129 175 C128.42282622 178.71286417 127.40601794 181.41741796 125.49609375 184.64453125 C125.00302734 185.48564453 124.50996094 186.32675781 124.00195312 187.19335938 C123.22754883 188.48983398 123.22754883 188.48983398 122.4375 189.8125 C121.91736328 190.69615234 121.39722656 191.57980469 120.86132812 192.49023438 C119.5805605 194.66401428 118.2933166 196.83367087 117 199 C113.19439766 198.41933397 110.473423 197.33578266 107.17578125 195.3671875 C106.24330566 194.81619385 105.31083008 194.2652002 104.35009766 193.69750977 C103.34769043 193.09608154 102.3452832 192.49465332 101.3125 191.875 C99.13974019 190.58913841 96.96654843 189.30400648 94.79296875 188.01953125 C93.67067871 187.3538916 92.54838867 186.68825195 91.39208984 186.00244141 C85.99305766 182.81524823 80.55943579 179.68881691 75.125 176.5625 C72.96090568 175.31515937 70.79684343 174.0677631 68.6328125 172.8203125 C65.24996094 170.87157246 61.86685154 168.92328132 58.48339844 166.97558594 C56.12653709 165.61884742 53.76993076 164.26166779 51.41357422 162.90405273 C49.20993131 161.63453881 47.00586045 160.36576732 44.80126953 159.09790039 C39.1791655 155.85860041 33.59026649 152.57452747 28.04638672 149.20288086 C21.8282931 145.54784062 15.07903039 145.00910369 8 146 C0.59519624 148.57103595 -6.20855847 152.77726245 -13 156.625 C-14.66301147 157.56194702 -14.66301147 157.56194702 -16.35961914 158.51782227 C-23.07759934 162.31354204 -29.76099099 166.16213411 -36.39648438 170.10009766 C-44.01422022 174.61924824 -51.69424522 179.03009729 -59.37719727 183.43725586 C-64.38491518 186.31454739 -69.3764547 189.20694708 -74.3046875 192.21875 C-75.08714844 192.69376953 -75.86960937 193.16878906 -76.67578125 193.65820312 C-78.09896262 194.52652071 -79.51612074 195.40482195 -80.92578125 196.29492188 C-85.43364593 199.03619094 -85.43364593 199.03619094 -88.02490234 198.87060547 C-90.74492647 197.67164304 -91.39265129 196.22985482 -92.796875 193.6328125 C-93.28027344 192.74722656 -93.76367188 191.86164063 -94.26171875 190.94921875 C-94.75285156 190.01722656 -95.24398437 189.08523437 -95.75 188.125 C-96.50990234 186.73861328 -96.50990234 186.73861328 -97.28515625 185.32421875 C-101 178.42522321 -101 178.42522321 -101 175 C-100.2879541 174.59386475 -99.5759082 174.18772949 -98.84228516 173.76928711 C-83.70282851 165.13183123 -68.57884441 156.46879623 -53.48828125 147.74609375 C-49.57926098 145.48692662 -45.66719424 143.23326061 -41.75042725 140.98756409 C-39.99022983 139.97825333 -38.23063104 138.96790645 -36.47119141 137.95727539 C-34.27800604 136.69794527 -32.08375435 135.44046943 -29.88818359 134.18530273 C-11.74192626 124.57737967 -11.74192626 124.57737967 -1 108 C-0.45885915 104.34536032 -0.43511257 100.75423294 -0.45410156 97.06420898 C-0.44376389 96.00950912 -0.43342621 94.95480927 -0.42277527 93.8681488 C-0.39347194 90.41063897 -0.39185069 86.95371771 -0.390625 83.49609375 C-0.375635 81.08755892 -0.35890614 78.67903434 -0.34051514 76.27052307 C-0.29692192 69.95278436 -0.27686012 63.63518431 -0.26177979 57.31732178 C-0.24217991 50.86185536 -0.20021305 44.40653804 -0.16015625 37.95117188 C-0.08494076 25.30080209 -0.03666548 12.65054032 0 0 Z " fill="#220047" transform="translate(111,0)"/>
<path d="M0 0 C3.80560234 0.58066603 6.526577 1.66421734 9.82421875 3.6328125 C10.75806396 4.18453125 11.69190918 4.73625 12.65405273 5.3046875 C13.65509033 5.90539063 14.65612793 6.50609375 15.6875 7.125 C17.83803507 8.39929283 19.98909602 9.67269852 22.140625 10.9453125 C23.26017578 11.60950195 24.37972656 12.27369141 25.53320312 12.95800781 C29.02118812 15.01935907 32.53086699 17.04159626 36.046875 19.0546875 C36.62520584 19.38614777 37.20353668 19.71760803 37.7993927 20.05911255 C40.59131323 21.65855302 43.38491233 23.2549809 46.18041992 24.84814453 C65.21360147 35.76840431 65.21360147 35.76840431 67 41 C67.1875 44.375 67.1875 44.375 66 48 C62.61189359 51.72839657 58.75472297 55.62940442 53.6081543 56.32177734 C44.74354531 56.73693034 39.26582181 54.19480878 31.8125 49.625 C30.18284302 48.66859619 30.18284302 48.66859619 28.52026367 47.69287109 C25.33309856 45.81729171 22.1663145 43.91049406 19 42 C17.36657017 41.03828411 15.73135729 40.07958515 14.09375 39.125 C11.33460015 37.51595547 8.58172379 35.89736749 5.8359375 34.265625 C-0.06500783 30.76675419 -6.03333929 27.38520528 -12 24 C-11.42282622 20.28713583 -10.40601794 17.58258204 -8.49609375 14.35546875 C-8.00302734 13.51435547 -7.50996094 12.67324219 -7.00195312 11.80664062 C-6.22754883 10.51016602 -6.22754883 10.51016602 -5.4375 9.1875 C-4.91736328 8.30384766 -4.39722656 7.42019531 -3.86132812 6.50976562 C-2.5805605 4.33598572 -1.2933166 2.16632913 0 0 Z " fill="#220047" transform="translate(22,51)"/>
<path d="M0 0 C0.85207031 -0.04898438 1.70414063 -0.09796875 2.58203125 -0.1484375 C6.40420847 0.61943618 7.75803287 2.37755882 10.1875 5.375 C10.78877258 8.78559875 10.78877258 8.78559875 10.75512695 12.7355957 C10.75585709 13.45809006 10.75658722 14.18058441 10.75733948 14.92497253 C10.75387001 17.30101947 10.71504413 19.67507904 10.67578125 22.05078125 C10.66645072 23.70272246 10.65933574 25.35467755 10.65434265 27.00663757 C10.63529141 31.3454538 10.58620766 35.68342735 10.53082275 40.02191162 C10.47958929 44.45264284 10.45681992 48.8835108 10.43164062 53.31445312 C10.37808602 62.00173107 10.29016635 70.68816349 10.1875 79.375 C1.2775 79.375 -7.6325 79.375 -16.8125 79.375 C-16.87556807 71.32331006 -16.93565461 63.2725249 -16.96775055 55.22080231 C-16.98353307 51.47057935 -17.00459196 47.72056282 -17.03881836 43.97045898 C-17.07162954 40.35240598 -17.08939836 36.73455203 -17.09713173 33.11636162 C-17.10263651 31.74218046 -17.11338513 30.36800909 -17.12969017 28.99391365 C-17.32662512 11.69526073 -17.32662512 11.69526073 -12.05859375 5.21875 C-11.46175781 4.7753125 -10.86492187 4.331875 -10.25 3.875 C-9.65058594 3.4109375 -9.05117187 2.946875 -8.43359375 2.46875 C-5.52490754 0.50626292 -3.48769144 0.13595199 0 0 Z " fill="#220047" transform="translate(127.8125,170.625)"/>
</svg>
